# xmcd CD database file
#
# Track frame offsets:
#	150
#	28655
#	58378
#	79322
#	110239
#	137028
#	155927
#	168568
#
# Disc length: 2663 seconds
#
# Revision: 0
# Processed by: cddbd v1.5.2PL0 Copyright (c) Steve Scherf et al.
# Submitted via: CDex 1.79
#
DISCID=790a6508
DTITLE=Pericopes - Shadows
DYEAR=2009
DGENRE=Jazz
TTITLE0=Aqva
TTITLE1=Anjalogie
TTITLE2=Red Sand Town
TTITLE3=La Plainte
TTITLE4=Lento Nevicare
TTITLE5=Cantus Animae
TTITLE6=Aymavilles
TTITLE7=Tears Valley
EXTD=YEAR: 2009
EXTT0=
EXTT1=
EXTT2=
EXTT3=
EXTT4=
EXTT5=
EXTT6=
EXTT7=
PLAYORDER=
